<?xml version="1.0" encoding="utf-8"?>
<!-- Generator: Adobe Illustrator 22.1.0, SVG Export Plug-In . SVG Version: 6.00 Build 0)  -->
<svg version="1.1" id="Layer_1" xmlns="http://www.w3.org/2000/svg" xmlns:xlink="http://www.w3.org/1999/xlink" x="0px" y="0px"
	 viewBox="0 0 659.2 90" style="enable-background:new 0 0 659.2 90;" xml:space="preserve">
<style type="text/css">
	.st0{fill:#FFFFFF;}
</style>
<g>
	<path class="st0" d="M140.9,90c-26.2,0-42.5-18.8-42.5-45c0-26.3,16.3-45,42.5-45c26.3,0,42.5,18.7,42.5,45
		C183.4,71.3,167.1,90,140.9,90L140.9,90z M140.9,15c-16.2,0-25,12.5-25,30c0,17.5,8.8,30,25,30c16.3,0,25-12.5,25-30
		C165.9,27.5,157.1,15,140.9,15L140.9,15z"/>
	<path class="st0" d="M262.9,53.8h-23.8l-1.2,1.2v32.5l-1.2,1.2h-15l-1.3-1.2v-85l1.3-1.2h41.3c17.5,0,30,8.7,30,26.3
		C292.9,45,280.4,53.8,262.9,53.8L262.9,53.8z M262.9,16.2h-23.8l-1.2,1.2v20l1.2,1.3h23.8c7.5,0,12.5-2.5,12.5-11.3
		C275.4,18.7,270.4,16.2,262.9,16.2L262.9,16.2z"/>
	<polygon class="st0" points="445,1.2 430,1.2 428.8,2.5 428.8,33.9 427.5,35.1 391.6,35.1 391.6,52.6 427.5,52.6 428.8,53.8 
		428.8,87.5 430,88.8 445,88.8 446.3,87.5 446.3,2.5 445,1.2 	"/>
	<path class="st0" d="M561.7,88.8h-11.3l-1.3-1.2l-6.2-16.3l-2.5-1.2h-31.3l-2.5,1.2l-6.2,16.3l-1.2,1.2h-11.3l-1.2-1.2V75
		l28.8-72.5l1.3-1.2h16.2l1.3,1.2L562.9,75v12.5L561.7,88.8L561.7,88.8z M525.4,23.8h-1.2l-11.3,30l1.2,1.2h21.3l1.3-1.2L525.4,23.8
		L525.4,23.8z"/>
	<polygon class="st0" points="658,16.2 633,16.2 631.7,17.5 631.7,87.5 630.5,88.8 615.5,88.8 614.2,87.5 614.2,17.5 613,16.2 
		588,16.2 586.7,15 586.7,2.5 588,1.2 658,1.2 659.2,2.5 659.2,15 658,16.2 	"/>
	<polygon class="st0" points="71.3,16.2 46.3,16.2 45,17.5 45,87.5 43.8,88.8 28.8,88.8 27.5,87.5 27.5,17.5 26.3,16.2 1.2,16.2 
		0,15 0,2.5 1.2,1.2 71.3,1.2 72.5,2.5 72.5,15 71.3,16.2 	"/>
	<polygon class="st0" points="391.6,2.5 391.6,35.1 375.4,35.1 374.1,33.8 374.1,2.5 375.4,1.2 390.4,1.2 391.6,2.5 	"/>
	<polygon class="st0" points="391.6,52.6 391.6,87.5 390.4,88.8 375.4,88.8 374.1,87.5 374.1,53.9 375.4,52.6 391.6,52.6 	"/>
</g>
</svg>
