<?xml version="1.0" encoding="utf-8"?>
<!-- Generator: Adobe Illustrator 22.1.0, SVG Export Plug-In . SVG Version: 6.00 Build 0)  -->
<svg version="1.1" id="Layer_2" xmlns="http://www.w3.org/2000/svg" xmlns:xlink="http://www.w3.org/1999/xlink" x="0px" y="0px"
	 viewBox="0 0 385.9 62.4" style="enable-background:new 0 0 385.9 62.4;" xml:space="preserve">
<style type="text/css">
	.st0{fill:#FFFFFF;}
</style>
<g>
	<path class="st0" d="M103.5,48.9c-9.7,0-17-6.5-17-17.1c0-10.9,7.7-17.7,17.6-17.7s17.1,7,17.1,17.1S113.8,48.9,103.5,48.9z
		 M103.8,16.4c-7.2,0-8.7,7-8.7,15c0,9.2,1.9,15.2,8.6,15.2c7.5,0,8.9-7.6,8.9-14.8C112.7,23.2,110.9,16.4,103.8,16.4z"/>
	<path class="st0" d="M125.8,27.1c-0.4,0-1.1,0-1.6,0.1v-1.7c2.6-0.9,5.3-1.5,8-1.7c2.3,0,2.8,0.9,2.8,3v1.1c2.6-3.3,5.5-4,7.8-4
		c5.7,0,8.8,4.6,8.8,11c0,9.2-6.5,14-15.5,14c-0.4,0-0.7,0-1.1,0v5.3c-0.2,1.2,0.6,2.2,1.8,2.4c0.1,0,0.2,0,0.3,0
		c0.1,0,1.8,0.1,2.2,0.1v2h-14.6v-1.9c0.6,0,1.2-0.1,1.8-0.3c0.8-0.3,1.1-1.1,1.1-2.4v-25C127.8,27.6,127.5,27.1,125.8,27.1z
		 M135.1,29.1v16.4c1,0.3,2,0.5,3,0.5c4.4,0,6.3-4.5,6.3-9.5s-1.9-8.2-5.8-8.2C137.4,28.4,136.2,28.7,135.1,29.1L135.1,29.1z"/>
	<path class="st0" d="M166.7,48.9c-7.2,0-11.3-4.2-11.3-11.5c0-7.8,4.7-13.6,13.1-13.6c5.8,0,9.1,2.8,9.3,8.3c0,0.6,0,1.2,0,1.9
		l-1.3,2h-14.1c0.2,4.7,1.9,7.9,7.2,7.9c2.4,0,4.7-0.5,7-1.2l0.2,2.6C174,47.6,170.4,48.9,166.7,48.9z M162.5,33.6h8.1
		c0-0.5,0.1-1.1,0.1-1.6c0-3.2-1.2-5.4-3.6-5.4C164.1,26.6,162.7,29.5,162.5,33.6z"/>
	<path class="st0" d="M192.8,46c0.5,0.2,1.1,0.4,1.7,0.4v1.8h-13.2v-1.8c0.6,0,1.2-0.1,1.8-0.3c0.8-0.3,1.2-1.1,1.2-2.4V29.1
		c0-1.5-0.2-2-1.8-2c-0.5,0-1.2,0-1.8,0.1v-1.7c2.6-0.9,5.2-1.5,7.9-1.7c2.3,0,2.9,0.9,2.9,3v1.3c2.5-2.5,5.4-4.3,8.8-4.3
		c4.8,0,7,2.5,7,8.4v11.5c-0.1,0.9,0.4,1.9,1.2,2.3c0.6,0.2,1.2,0.4,1.8,0.4v1.8h-13.3v-1.8c0.6,0,1.2-0.1,1.8-0.3
		c0.8-0.3,1.2-1.1,1.2-2.4v-9.4c0-3.7-0.7-5.9-4.5-5.9c-1.4,0-2.7,0.3-4,0.8v14.5C191.5,44.6,192,45.6,192.8,46z"/>
	<path class="st0" d="M226.5,46.2v-8.8h1.8c2.2,6.5,5.4,8.9,9.8,8.9c3.9,0,6-1.9,6-5c0-2.4-1.4-4.7-5.4-6l-3.3-1.2
		c-4.7-1.6-8.8-3.8-8.8-9.5c0-5.9,4.6-10.7,13.1-10.7c3.5,0,6.9,0.9,10,2.6v8.6h-2.1c-1.6-6.2-4.1-8.8-8.4-8.8c-3.8,0-5.8,2.1-5.8,5
		s1.9,4.6,4.7,5.5l3.8,1.2c6.3,2.1,9.2,5,9.2,9.7c0,6.7-5.9,10.9-13.8,10.9C233.6,48.9,229.8,48,226.5,46.2z"/>
	<path class="st0" d="M267.1,48.9c-6.9,0-11.9-4-11.9-11.6c0-8.2,6-13.5,13.8-13.5c7,0,11.6,4.2,11.6,11.4
		C280.6,42.6,275.6,48.9,267.1,48.9z M267.6,26.6c-3.5,0-4.6,3.5-4.6,8.9c0,6,1.3,10.6,5.2,10.6c3.3,0,4.7-3.3,4.7-9.3
		S271.4,26.6,267.6,26.6z"/>
	<path class="st0" d="M300.2,27.1c-0.5,0-1.2,0-1.8,0.1v-1.7c2.5-0.9,5.2-1.5,7.9-1.7c2.3,0,2.9,0.9,2.9,3v16.4c0,2.7,1,3.1,3.5,3
		v1.2c-1.8,0.9-3.7,1.4-5.7,1.4c-4,0-5.1-1.6-5.2-4c-2.5,2.6-4.9,4.1-8.5,4.1c-4.7,0-6.9-2.6-6.9-8.5V29.1c0-1.5-0.2-2-2-2
		c-0.5,0-1,0-1.5,0.1v-1.7c2.5-0.9,5.2-1.5,7.9-1.7c2.3,0,2.9,0.9,2.9,3v11.8c0,3.4,0.9,5.4,4.6,5.4c1.2,0,2.3-0.2,3.4-0.6V29.1
		C301.9,27.6,301.7,27.1,300.2,27.1z"/>
	<path class="st0" d="M328.1,46.1c0.1,0,1.4,0.1,1.8,0.1v2h-14.5v-1.8c0.6,0,1.2-0.1,1.8-0.3c0.8-0.3,1.2-1.1,1.2-2.4V29.1
		c0-1.5-0.3-2-2.1-2c-0.5,0-1,0-1.5,0.1v-1.7c2.5-0.9,5.2-1.5,7.9-1.7c2.3,0,2.9,0.9,2.9,3v1c2.1-2.5,4.4-3.9,6.9-3.9
		c2.2,0,4,1.2,4,3.8c0.1,1.9-1.3,3.5-3.2,3.6c-0.1,0-0.2,0-0.3,0c-2.7,0-2.5-2.9-4.8-2.9c-0.9,0.1-1.8,0.4-2.5,0.9v14.5
		c-0.1,1.2,0.8,2.3,2.1,2.4C327.8,46.1,328,46.1,328.1,46.1z"/>
	<path class="st0" d="M349.7,48.9c-7.2,0-11.2-4.6-11.2-11.6c0-7.6,5-13.5,13.2-13.5c5.4,0,8.5,2.2,8.5,5c0.2,1.7-1.1,3.3-2.8,3.5
		c-0.1,0-0.3,0-0.4,0c-4.3,0-2.5-5.8-6.8-5.8c-3,0-4.6,3.8-4.6,8.5c0,5.2,1.8,8.7,7.2,8.7c2.3-0.1,4.6-0.5,6.8-1.2l0.1,2.6
		C356.9,47.6,353.3,49,349.7,48.9z"/>
	<path class="st0" d="M374.7,48.9c-7.2,0-11.3-4.2-11.3-11.5c0-7.8,4.7-13.6,13.1-13.6c5.8,0,9.1,2.8,9.3,8.3c0,0.6,0,1.2,0,1.9
		l-1.3,2h-14.1c0.2,4.7,1.9,7.9,7.2,7.9c2.4,0,4.8-0.5,7.1-1.2l0.1,2.6C382,47.6,378.4,48.9,374.7,48.9z M370.5,33.6h8.1
		c0-0.5,0.1-1.1,0.1-1.6c0-3.2-1.2-5.4-3.7-5.4C372.1,26.6,370.7,29.5,370.5,33.6z"/>
	<polygon class="st0" points="62.4,30.2 32.2,0 21.8,10.4 41.8,30.2 41.7,30.2 32.2,39.7 42.6,50 	"/>
	<polygon class="st0" points="40.6,52 39.7,51.1 20.6,32.2 20.7,32.2 30.1,22.7 19.8,12.4 10.4,21.8 0,32.2 30.2,62.4 	"/>
</g>
</svg>
